<svg xmlns="http://www.w3.org/2000/svg" xmlns:xlink="http://www.w3.org/1999/xlink" width="174.708" height="49.203" viewBox="0 0 174.708 49.203"><defs><clipPath id="a"><path d="M284.735,1197.013h8.188V1172.5h-8.188Zm-16.873-8.288c-2.828,0-4.317-2.283-4.317-5.012,0-2.631,1.489-4.814,4.317-4.814a6.218,6.218,0,0,1,4.467,1.936v5.906a6.276,6.276,0,0,1-4.467,1.985m-.1,19.007c8.685,0,12.754-4.268,12.754-11.513V1172.5h-8.188v1.389a8.9,8.9,0,0,0-6.1-2.183c-6.7,0-11.116,5.012-11.116,12.01,0,7.1,4.417,12.208,11.116,12.208a9.978,9.978,0,0,0,6.1-2.184v2.482c0,2.68-1.539,4.07-5.062,4.07a18.419,18.419,0,0,1-9.926-3.375v7.94a21.181,21.181,0,0,0,10.422,2.878m-30.818-9.925a9.09,9.09,0,0,0,6.6-2.581v1.787h8.089V1172.5h-8.188v15.682a4.7,4.7,0,0,1-3.821,2.184,3.193,3.193,0,0,1-3.325-3.474V1172.5h-8.188v16.426a8.554,8.554,0,0,0,8.833,8.884m-35.185-.794h22.63v-6.849H212.729l11.414-11.116V1172.5H201.96v6.7h11.216l-11.415,11.116Zm-27.194,0h24.218v-7.94H183v-5.608h14.243v-7.692H183v-5.807h15.781v-7.692H174.566Z" transform="translate(-174.566 -1162.274)" fill="none"/></clipPath><linearGradient id="b" x1="0.435" y1="1.016" x2="0.529" y2="-0.189" gradientUnits="objectBoundingBox"><stop offset="0" stop-color="#f72442"/><stop offset="0.054" stop-color="#cd1d36"/><stop offset="0.133" stop-color="#971628"/><stop offset="0.212" stop-color="#690f1c"/><stop offset="0.291" stop-color="#430911"/><stop offset="0.369" stop-color="#25050a"/><stop offset="0.446" stop-color="#100204"/><stop offset="0.521" stop-color="#040001"/><stop offset="0.592"/></linearGradient></defs><g transform="translate(-73.243 -60.797)"><g transform="translate(73.243 60.797)"><path d="M781.361,1154.481a5.578,5.578,0,1,0-5.633-5.578,5.674,5.674,0,0,0,5.633,5.578" transform="translate(-656.898 -1143.326)" fill="#f72442"/><path d="M284.735,1197.013h8.188V1172.5h-8.188Zm-16.873-8.288c-2.828,0-4.317-2.283-4.317-5.012,0-2.631,1.489-4.814,4.317-4.814a6.218,6.218,0,0,1,4.467,1.936v5.906a6.276,6.276,0,0,1-4.467,1.985m-.1,19.007c8.685,0,12.754-4.268,12.754-11.513V1172.5h-8.188v1.389a8.9,8.9,0,0,0-6.1-2.183c-6.7,0-11.116,5.012-11.116,12.01,0,7.1,4.417,12.208,11.116,12.208a9.978,9.978,0,0,0,6.1-2.184v2.482c0,2.68-1.539,4.07-5.062,4.07a18.419,18.419,0,0,1-9.926-3.375v7.94a21.181,21.181,0,0,0,10.422,2.878m-30.818-9.925a9.09,9.09,0,0,0,6.6-2.581v1.787h8.089V1172.5h-8.188v15.682a4.7,4.7,0,0,1-3.821,2.184,3.193,3.193,0,0,1-3.325-3.474V1172.5h-8.188v16.426a8.554,8.554,0,0,0,8.833,8.884m-35.185-.794h22.63v-6.849H212.729l11.414-11.116V1172.5H201.96v6.7h11.216l-11.415,11.116Zm-27.194,0h24.218v-7.94H183v-5.608h14.243v-7.692H183v-5.807h15.781v-7.692H174.566Z" transform="translate(-174.566 -1158.529)"/><g transform="translate(0 3.745)"><g clip-path="url(#a)"><path d="M143.953,913.2s3.433,57.056,95.306,55.642,96.637-84.2,96.637-84.2Z" transform="translate(-150.004 -939.524)" fill="url(#b)"/></g></g></g><path d="M1.152,0h.137V-2.808h2.1A2.3,2.3,0,0,0,5.039-3.4,1.985,1.985,0,0,0,5.659-4.9a1.991,1.991,0,0,0-.623-1.506A2.29,2.29,0,0,0,3.389-7H1.152Zm.137-2.949V-6.86h2.1a2.149,2.149,0,0,1,1.536.549A1.849,1.849,0,0,1,5.508-4.9,1.841,1.841,0,0,1,4.924-3.5a2.155,2.155,0,0,1-1.536.547Zm5.479,1.47A1.461,1.461,0,0,0,7.3-.276,2.111,2.111,0,0,0,8.667.151a2.348,2.348,0,0,0,1.689-.684V0H10.5V-3.3a1.818,1.818,0,0,0-.049-.427,1.474,1.474,0,0,0-.171-.408,1.24,1.24,0,0,0-.312-.352,1.546,1.546,0,0,0-.5-.239,2.393,2.393,0,0,0-.7-.093,3.7,3.7,0,0,0-1.729.439v.19a3.739,3.739,0,0,1,.815-.349,3.134,3.134,0,0,1,.913-.139,2.274,2.274,0,0,1,.64.083,1.371,1.371,0,0,1,.457.217,1.164,1.164,0,0,1,.286.32,1.293,1.293,0,0,1,.156.371,1.668,1.668,0,0,1,.044.386v.83a3,3,0,0,0-1.689-.518,2.541,2.541,0,0,0-.933.166,1.6,1.6,0,0,0-.7.515A1.31,1.31,0,0,0,6.768-1.479Zm.146,0a1.191,1.191,0,0,1,.5-.991,2.006,2.006,0,0,1,1.255-.381,2.76,2.76,0,0,1,.977.168,2.945,2.945,0,0,1,.713.364V-.679a2.748,2.748,0,0,1-.713.471A2.213,2.213,0,0,1,8.667.01,1.954,1.954,0,0,1,7.4-.383,1.328,1.328,0,0,1,6.914-1.479ZM12.2,0h.142V-3.369a1.956,1.956,0,0,1,1.7-1.3,1.388,1.388,0,0,1,.459.078v-.181a2.247,2.247,0,0,0-.459-.049,1.539,1.539,0,0,0-.6.12,1.688,1.688,0,0,0-.5.315,2.628,2.628,0,0,0-.364.408,2.124,2.124,0,0,0-.239.427V-4.658H12.2ZM15.46-4.531h.889V-.879A1.037,1.037,0,0,0,16.61-.1a.844.844,0,0,0,.6.251,1.86,1.86,0,0,0,.547-.1V-.112a1.25,1.25,0,0,1-.547.132.7.7,0,0,1-.5-.212.921.921,0,0,1-.22-.686V-4.531h1.26v-.127h-1.26V-6.582l-.142.083v1.841H15.46Zm6.2,2.192a2.723,2.723,0,0,0,.288,1.257,2.218,2.218,0,0,0,.835.9,2.366,2.366,0,0,0,1.26.334A2.366,2.366,0,0,0,25.3-.183a2.2,2.2,0,0,0,.833-.9,2.743,2.743,0,0,0,.286-1.257,2.717,2.717,0,0,0-.286-1.25,2.205,2.205,0,0,0-.833-.9,2.366,2.366,0,0,0-1.26-.334,2.236,2.236,0,0,0-1.726.713A2.51,2.51,0,0,0,21.657-2.339Zm.142,0a2.37,2.37,0,0,1,.618-1.667,2.1,2.1,0,0,1,1.624-.671,2.224,2.224,0,0,1,1.184.315,2.072,2.072,0,0,1,.784.845,2.57,2.57,0,0,1,.269,1.179,2.388,2.388,0,0,1-.615,1.677A2.094,2.094,0,0,1,24.04.01a2.1,2.1,0,0,1-1.624-.671A2.383,2.383,0,0,1,21.8-2.339Zm5.528-2.192h.889V0h.142V-4.531h1.26v-.127h-1.26V-6.24a1.2,1.2,0,0,1,.071-.432.683.683,0,0,1,.186-.281.769.769,0,0,1,.237-.142.73.73,0,0,1,.249-.044,1.624,1.624,0,0,1,.527.1V-7.2a1.955,1.955,0,0,0-.488-.068.927.927,0,0,0-.654.249,1.019,1.019,0,0,0-.269.781v1.582h-.889ZM1.152,10H5.22V9.858H1.289V6.538H4.912V6.4H1.289V3.14H5.22V3H1.152ZM6.231,5.342l2,4.658h.161l1.958-4.658h-.156L8.311,9.819,6.387,5.342Zm4.83,2.319a2.723,2.723,0,0,0,.288,1.257,2.218,2.218,0,0,0,.835.9,2.54,2.54,0,0,0,2.52,0,2.2,2.2,0,0,0,.833-.9,2.894,2.894,0,0,0,0-2.507,2.205,2.205,0,0,0-.833-.9,2.366,2.366,0,0,0-1.26-.334,2.236,2.236,0,0,0-1.726.713A2.51,2.51,0,0,0,11.06,7.661Zm.142,0a2.37,2.37,0,0,1,.618-1.667,2.1,2.1,0,0,1,1.624-.671,2.224,2.224,0,0,1,1.184.315,2.072,2.072,0,0,1,.784.845,2.57,2.57,0,0,1,.269,1.179,2.388,2.388,0,0,1-.615,1.677,2.094,2.094,0,0,1-1.621.671,2.1,2.1,0,0,1-1.624-.671A2.383,2.383,0,0,1,11.2,7.661ZM17.33,10h.142V2.749H17.33Zm2-1.479a1.576,1.576,0,0,0,.466,1.169,1.664,1.664,0,0,0,1.223.461,2,2,0,0,0,1.025-.259,2.168,2.168,0,0,0,.693-.61V10h.142V5.332h-.142V9.121A2.137,2.137,0,0,1,21.017,10,1.547,1.547,0,0,1,19.9,9.58,1.427,1.427,0,0,1,19.465,8.5V5.332h-.137Zm4.805-3.052h.889V9.121a1.037,1.037,0,0,0,.261.779.844.844,0,0,0,.6.251,1.86,1.86,0,0,0,.547-.1V9.888a1.25,1.25,0,0,1-.547.132.7.7,0,0,1-.5-.212.921.921,0,0,1-.22-.686V5.469h1.26V5.342h-1.26V3.418l-.142.083V5.342h-.889Zm3.619-2.251a.321.321,0,0,0,.088.229.29.29,0,0,0,.22.093.31.31,0,0,0,.232-.093.316.316,0,0,0,.09-.229.308.308,0,0,0-.09-.227.314.314,0,0,0-.232-.09.292.292,0,0,0-.222.09A.317.317,0,0,0,27.752,3.218ZM27.991,10h.142V5.342h-.142Zm1.646-2.339a2.723,2.723,0,0,0,.288,1.257,2.218,2.218,0,0,0,.835.9,2.54,2.54,0,0,0,2.52,0,2.2,2.2,0,0,0,.833-.9,2.894,2.894,0,0,0,0-2.507,2.205,2.205,0,0,0-.833-.9,2.366,2.366,0,0,0-1.26-.334,2.236,2.236,0,0,0-1.726.713A2.51,2.51,0,0,0,29.637,7.661Zm.142,0A2.37,2.37,0,0,1,30.4,5.994a2.1,2.1,0,0,1,1.624-.671,2.224,2.224,0,0,1,1.184.315,2.072,2.072,0,0,1,.784.845,2.57,2.57,0,0,1,.269,1.179,2.388,2.388,0,0,1-.615,1.677,2.3,2.3,0,0,1-3.245,0A2.383,2.383,0,0,1,29.778,7.661ZM35.907,10h.142V6.211a2.12,2.12,0,0,1,1.7-.879,1.506,1.506,0,0,1,1.1.42,1.408,1.408,0,0,1,.43,1.05V10h.142V6.782a1.549,1.549,0,0,0-.461-1.14,1.634,1.634,0,0,0-1.208-.461,1.938,1.938,0,0,0-1.011.259,2.256,2.256,0,0,0-.688.61V5.342h-.142ZM.649,17.661a2.872,2.872,0,0,0,.269,1.255,2.15,2.15,0,0,0,.793.9,2.206,2.206,0,0,0,1.218.337A2.223,2.223,0,0,0,3.95,19.9a2.121,2.121,0,0,0,.771-.63v.874a2.491,2.491,0,0,1-.1.752,1.67,1.67,0,0,1-.327.591,1.416,1.416,0,0,1-.6.4,2.581,2.581,0,0,1-.891.139,3.852,3.852,0,0,1-.923-.122,2.573,2.573,0,0,1-.894-.41v.19a2.909,2.909,0,0,0,.811.347,3.77,3.77,0,0,0,1.006.132,2.039,2.039,0,0,0,1.56-.537,2.085,2.085,0,0,0,.5-1.479v-4.8H4.722v.708a1.98,1.98,0,0,0-.764-.625,2.3,2.3,0,0,0-1.028-.244,2.218,2.218,0,0,0-1.218.334,2.134,2.134,0,0,0-.793.9A2.86,2.86,0,0,0,.649,17.661Zm.142,0a2.672,2.672,0,0,1,.256-1.179,2.029,2.029,0,0,1,1.882-1.16,2.2,2.2,0,0,1,1.05.271,2.016,2.016,0,0,1,.742.618v2.9a2.108,2.108,0,0,1-.745.623,2.158,2.158,0,0,1-1.047.276,1.959,1.959,0,0,1-1.553-.671A2.459,2.459,0,0,1,.791,17.661ZM6.568,20h.142V16.631a1.956,1.956,0,0,1,1.7-1.3,1.388,1.388,0,0,1,.459.078v-.181a2.247,2.247,0,0,0-.459-.049,1.539,1.539,0,0,0-.6.12,1.688,1.688,0,0,0-.5.315,2.628,2.628,0,0,0-.364.408,2.124,2.124,0,0,0-.239.427V15.342H6.568Zm3.155-2.339a2.723,2.723,0,0,0,.288,1.257,2.218,2.218,0,0,0,.835.9,2.54,2.54,0,0,0,2.52,0,2.2,2.2,0,0,0,.833-.9,2.894,2.894,0,0,0,0-2.507,2.205,2.205,0,0,0-.833-.9,2.366,2.366,0,0,0-1.26-.334,2.236,2.236,0,0,0-1.726.713A2.51,2.51,0,0,0,9.723,17.661Zm.142,0a2.37,2.37,0,0,1,.618-1.667,2.1,2.1,0,0,1,1.624-.671,2.224,2.224,0,0,1,1.184.315,2.072,2.072,0,0,1,.784.845,2.57,2.57,0,0,1,.269,1.179,2.388,2.388,0,0,1-.615,1.677,2.094,2.094,0,0,1-1.621.671,2.1,2.1,0,0,1-1.624-.671A2.383,2.383,0,0,1,9.864,17.661Zm6.08.859a1.576,1.576,0,0,0,.466,1.169,1.664,1.664,0,0,0,1.223.461,2,2,0,0,0,1.025-.259,2.168,2.168,0,0,0,.693-.61V20h.142V15.332h-.142v3.789A2.137,2.137,0,0,1,17.633,20a1.547,1.547,0,0,1-1.113-.42A1.427,1.427,0,0,1,16.08,18.5V15.332h-.137Zm5.406,3.369h.142V19.268a2.126,2.126,0,0,0,.747.632,2.086,2.086,0,0,0,.991.251,2.342,2.342,0,0,0,.962-.2,2.115,2.115,0,0,0,.737-.532,2.451,2.451,0,0,0,.464-.791,2.808,2.808,0,0,0,.166-.972,2.756,2.756,0,0,0-.281-1.25,2.192,2.192,0,0,0-.818-.9,2.279,2.279,0,0,0-1.23-.334,2.143,2.143,0,0,0-1,.242,2.028,2.028,0,0,0-.742.627v-.708h-.142Zm.142-2.778v-2.9a2.22,2.22,0,0,1,1.738-.889A2.036,2.036,0,0,1,24.811,16a2.59,2.59,0,0,1,0,3.34,2.036,2.036,0,0,1-1.582.674,2.015,2.015,0,0,1-1.016-.273A2.166,2.166,0,0,1,21.491,19.111Z" transform="translate(208.283 79.398)" stroke="#000" stroke-width="0.5"/></g></svg>